<svg width="597" height="272" viewBox="0 0 597 272" fill="none" xmlns="http://www.w3.org/2000/svg">
<path d="M187.013 189.22L179.805 204H82.8643L98.4717 172H195.412L187.013 189.22ZM237.58 124.323C251.456 131.179 261 145.475 261 162C261 185.196 242.196 204 219 204H198.719L200.749 199.838L214.326 172L237.58 124.323ZM219 120C219.588 120 220.174 120.012 220.756 120.036L219 123.637L205.166 152H110L109.12 151.991C108.827 151.985 108.535 151.976 108.244 151.964L110 148.363L123.834 120H219ZM128.251 72.1621L114.674 100L91.4199 147.678C77.5435 140.822 68 126.525 68 110C68 86.804 86.804 68 110 68H130.281L128.251 72.1621ZM230.528 100H133.589L141.987 82.7803L149.196 68H246.136L230.528 100Z" fill="#0A56C4"/>
<path d="M304.199 127.347C300.105 127.347 296.159 126.872 292.362 125.923C288.624 124.914 285.657 123.668 283.462 122.185L288.09 112.217C290.285 113.581 292.866 114.709 295.833 115.599C298.859 116.429 301.826 116.845 304.733 116.845C307.937 116.845 310.192 116.459 311.497 115.688C312.862 114.916 313.544 113.848 313.544 112.484C313.544 111.356 313.01 110.526 311.942 109.992C310.933 109.398 309.569 108.953 307.848 108.657C306.127 108.36 304.229 108.063 302.152 107.767C300.135 107.47 298.088 107.084 296.011 106.61C293.934 106.076 292.036 105.304 290.315 104.296C288.594 103.287 287.2 101.922 286.132 100.202C285.123 98.4809 284.619 96.2559 284.619 93.5265C284.619 90.5005 285.479 87.8305 287.2 85.5165C288.98 83.2025 291.531 81.3929 294.854 80.0875C298.177 78.7229 302.152 78.0405 306.78 78.0405C310.043 78.0405 313.366 78.3965 316.748 79.1085C320.13 79.8205 322.948 80.8589 325.203 82.2235L320.575 92.1025C318.261 90.7379 315.917 89.8182 313.544 89.3435C311.23 88.8095 308.975 88.5425 306.78 88.5425C303.695 88.5425 301.44 88.9579 300.016 89.7885C298.592 90.6192 297.88 91.6872 297.88 92.9925C297.88 94.1792 298.384 95.0692 299.393 95.6625C300.461 96.2559 301.855 96.7305 303.576 97.0865C305.297 97.4425 307.166 97.7689 309.183 98.0655C311.26 98.3029 313.336 98.6885 315.413 99.2225C317.49 99.7565 319.359 100.528 321.02 101.537C322.741 102.486 324.135 103.821 325.203 105.542C326.271 107.203 326.805 109.398 326.805 112.128C326.805 115.094 325.915 117.735 324.135 120.049C322.355 122.303 319.774 124.083 316.392 125.389C313.069 126.694 309.005 127.347 304.199 127.347ZM356.521 127.347C350.884 127.347 346.494 125.923 343.349 123.075C340.204 120.167 338.632 115.866 338.632 110.17V68.1615H352.516V109.992C352.516 112.009 353.05 113.581 354.118 114.709C355.186 115.777 356.64 116.311 358.479 116.311C360.674 116.311 362.543 115.717 364.086 114.531L367.824 124.321C366.4 125.329 364.679 126.101 362.662 126.635C360.704 127.109 358.657 127.347 356.521 127.347ZM331.245 90.5005V79.8205H364.442V90.5005H331.245ZM395.473 127.347C390.015 127.347 385.209 126.279 381.055 124.143C376.961 122.007 373.787 119.099 371.532 115.421C369.278 111.683 368.15 107.44 368.15 102.694C368.15 97.8875 369.248 93.6452 371.443 89.9665C373.698 86.2285 376.754 83.3212 380.61 81.2445C384.467 79.1085 388.828 78.0405 393.693 78.0405C398.381 78.0405 402.593 79.0492 406.331 81.0665C410.129 83.0245 413.125 85.8725 415.32 89.6105C417.516 93.2892 418.613 97.7095 418.613 102.872C418.613 103.406 418.584 104.029 418.524 104.741C418.465 105.393 418.406 106.016 418.346 106.61H379.453V98.5105H411.048L405.708 100.914C405.708 98.4215 405.204 96.2559 404.195 94.4165C403.187 92.5772 401.792 91.1532 400.012 90.1445C398.232 89.0765 396.156 88.5425 393.782 88.5425C391.409 88.5425 389.303 89.0765 387.463 90.1445C385.683 91.1532 384.289 92.6069 383.28 94.5055C382.272 96.3449 381.767 98.5402 381.767 101.092V103.228C381.767 105.838 382.331 108.152 383.458 110.17C384.645 112.128 386.277 113.641 388.353 114.709C390.489 115.717 392.981 116.222 395.829 116.222C398.381 116.222 400.606 115.836 402.504 115.065C404.462 114.293 406.242 113.136 407.844 111.594L415.231 119.604C413.036 122.096 410.277 124.024 406.954 125.389C403.632 126.694 399.805 127.347 395.473 127.347ZM449.19 127.347C443.731 127.347 438.925 126.279 434.772 124.143C430.678 122.007 427.504 119.099 425.249 115.421C422.994 111.683 421.867 107.44 421.867 102.694C421.867 97.8875 422.965 93.6452 425.16 89.9665C427.415 86.2285 430.47 83.3212 434.327 81.2445C438.184 79.1085 442.545 78.0405 447.41 78.0405C452.097 78.0405 456.31 79.0492 460.048 81.0665C463.845 83.0245 466.842 85.8725 469.037 89.6105C471.232 93.2892 472.33 97.7095 472.33 102.872C472.33 103.406 472.3 104.029 472.241 104.741C472.182 105.393 472.122 106.016 472.063 106.61H433.17V98.5105H464.765L459.425 100.914C459.425 98.4215 458.921 96.2559 457.912 94.4165C456.903 92.5772 455.509 91.1532 453.729 90.1445C451.949 89.0765 449.872 88.5425 447.499 88.5425C445.126 88.5425 443.019 89.0765 441.18 90.1445C439.4 91.1532 438.006 92.6069 436.997 94.5055C435.988 96.3449 435.484 98.5402 435.484 101.092V103.228C435.484 105.838 436.048 108.152 437.175 110.17C438.362 112.128 439.993 113.641 442.07 114.709C444.206 115.717 446.698 116.222 449.546 116.222C452.097 116.222 454.322 115.836 456.221 115.065C458.179 114.293 459.959 113.136 461.561 111.594L468.948 119.604C466.753 122.096 463.994 124.024 460.671 125.389C457.348 126.694 453.521 127.347 449.19 127.347ZM504.445 127.347C500.411 127.347 496.88 126.457 493.854 124.677C490.828 122.897 488.455 120.197 486.734 116.578C485.073 112.899 484.242 108.271 484.242 102.694C484.242 97.0569 485.043 92.4289 486.645 88.8095C488.247 85.1902 490.561 82.4905 493.587 80.7105C496.613 78.9305 500.233 78.0405 504.445 78.0405C508.955 78.0405 512.989 79.0789 516.549 81.1555C520.169 83.1729 523.017 86.0209 525.093 89.6995C527.229 93.3782 528.297 97.7095 528.297 102.694C528.297 107.737 527.229 112.098 525.093 115.777C523.017 119.455 520.169 122.303 516.549 124.321C512.989 126.338 508.955 127.347 504.445 127.347ZM476.143 143.901V78.7525H489.404V88.5425L489.137 102.783L490.027 116.934V143.901H476.143ZM502.042 115.955C504.356 115.955 506.403 115.421 508.183 114.353C510.023 113.285 511.476 111.772 512.544 109.814C513.672 107.796 514.235 105.423 514.235 102.694C514.235 99.9049 513.672 97.5315 512.544 95.5735C511.476 93.6155 510.023 92.1025 508.183 91.0345C506.403 89.9665 504.356 89.4325 502.042 89.4325C499.728 89.4325 497.652 89.9665 495.812 91.0345C493.973 92.1025 492.519 93.6155 491.451 95.5735C490.383 97.5315 489.849 99.9049 489.849 102.694C489.849 105.423 490.383 107.796 491.451 109.814C492.519 111.772 493.973 113.285 495.812 114.353C497.652 115.421 499.728 115.955 502.042 115.955ZM304.199 193.347C300.105 193.347 296.159 192.872 292.362 191.923C288.624 190.914 285.657 189.668 283.462 188.185L288.09 178.217C290.285 179.581 292.866 180.709 295.833 181.599C298.859 182.429 301.826 182.845 304.733 182.845C307.937 182.845 310.192 182.459 311.497 181.688C312.862 180.916 313.544 179.848 313.544 178.484C313.544 177.356 313.01 176.526 311.942 175.992C310.933 175.398 309.569 174.953 307.848 174.657C306.127 174.36 304.229 174.063 302.152 173.767C300.135 173.47 298.088 173.084 296.011 172.61C293.934 172.076 292.036 171.304 290.315 170.296C288.594 169.287 287.2 167.922 286.132 166.202C285.123 164.481 284.619 162.256 284.619 159.527C284.619 156.501 285.479 153.831 287.2 151.517C288.98 149.203 291.531 147.393 294.854 146.088C298.177 144.723 302.152 144.041 306.78 144.041C310.043 144.041 313.366 144.397 316.748 145.109C320.13 145.821 322.948 146.859 325.203 148.224L320.575 158.103C318.261 156.738 315.917 155.818 313.544 155.344C311.23 154.81 308.975 154.543 306.78 154.543C303.695 154.543 301.44 154.958 300.016 155.789C298.592 156.619 297.88 157.687 297.88 158.993C297.88 160.179 298.384 161.069 299.393 161.663C300.461 162.256 301.855 162.731 303.576 163.087C305.297 163.443 307.166 163.769 309.183 164.066C311.26 164.303 313.336 164.689 315.413 165.223C317.49 165.757 319.359 166.528 321.02 167.537C322.741 168.486 324.135 169.821 325.203 171.542C326.271 173.203 326.805 175.398 326.805 178.128C326.805 181.094 325.915 183.735 324.135 186.049C322.355 188.303 319.774 190.083 316.392 191.389C313.069 192.694 309.005 193.347 304.199 193.347ZM356.521 193.347C350.884 193.347 346.494 191.923 343.349 189.075C340.204 186.167 338.632 181.866 338.632 176.17V134.162H352.516V175.992C352.516 178.009 353.05 179.581 354.118 180.709C355.186 181.777 356.64 182.311 358.479 182.311C360.674 182.311 362.543 181.717 364.086 180.531L367.824 190.321C366.4 191.329 364.679 192.101 362.662 192.635C360.704 193.109 358.657 193.347 356.521 193.347ZM331.245 156.501V145.821H364.442V156.501H331.245ZM395.473 193.347C390.015 193.347 385.209 192.279 381.055 190.143C376.961 188.007 373.787 185.099 371.532 181.421C369.278 177.683 368.15 173.44 368.15 168.694C368.15 163.888 369.248 159.645 371.443 155.967C373.698 152.229 376.754 149.321 380.61 147.245C384.467 145.109 388.828 144.041 393.693 144.041C398.381 144.041 402.593 145.049 406.331 147.067C410.129 149.025 413.125 151.873 415.32 155.611C417.516 159.289 418.613 163.71 418.613 168.872C418.613 169.406 418.584 170.029 418.524 170.741C418.465 171.393 418.406 172.016 418.346 172.61H379.453V164.511H411.048L405.708 166.914C405.708 164.422 405.204 162.256 404.195 160.417C403.187 158.577 401.792 157.153 400.012 156.145C398.232 155.077 396.156 154.543 393.782 154.543C391.409 154.543 389.303 155.077 387.463 156.145C385.683 157.153 384.289 158.607 383.28 160.506C382.272 162.345 381.767 164.54 381.767 167.092V169.228C381.767 171.838 382.331 174.152 383.458 176.17C384.645 178.128 386.277 179.641 388.353 180.709C390.489 181.717 392.981 182.222 395.829 182.222C398.381 182.222 400.606 181.836 402.504 181.065C404.462 180.293 406.242 179.136 407.844 177.594L415.231 185.604C413.036 188.096 410.277 190.024 406.954 191.389C403.632 192.694 399.805 193.347 395.473 193.347ZM450.729 193.347C446.694 193.347 443.164 192.457 440.138 190.677C437.112 188.897 434.739 186.197 433.018 182.578C431.357 178.899 430.526 174.271 430.526 168.694C430.526 163.057 431.327 158.429 432.929 154.81C434.531 151.19 436.845 148.491 439.871 146.711C442.897 144.931 446.516 144.041 450.729 144.041C455.238 144.041 459.273 145.079 462.833 147.156C466.452 149.173 469.3 152.021 471.377 155.7C473.513 159.378 474.581 163.71 474.581 168.694C474.581 173.737 473.513 178.098 471.377 181.777C469.3 185.455 466.452 188.303 462.833 190.321C459.273 192.338 455.238 193.347 450.729 193.347ZM422.427 209.901V144.753H435.688V154.543L435.421 168.783L436.311 182.934V209.901H422.427ZM448.326 181.955C450.64 181.955 452.687 181.421 454.467 180.353C456.306 179.285 457.76 177.772 458.828 175.814C459.955 173.796 460.519 171.423 460.519 168.694C460.519 165.905 459.955 163.532 458.828 161.574C457.76 159.616 456.306 158.103 454.467 157.035C452.687 155.967 450.64 155.433 448.326 155.433C446.012 155.433 443.935 155.967 442.096 157.035C440.257 158.103 438.803 159.616 437.735 161.574C436.667 163.532 436.133 165.905 436.133 168.694C436.133 171.423 436.667 173.796 437.735 175.814C438.803 177.772 440.257 179.285 442.096 180.353C443.935 181.421 446.012 181.955 448.326 181.955Z" fill="black"/>
</svg>
